<svg xmlns="http://www.w3.org/2000/svg" viewBox="0 0 1200 690" width="1200" height="690" role="img" aria-label="Die KI-Journey: von heute über KI-Quick-Check, KI-Wertanalyse, Roadmap sowie Pilot und Befähigung bis zur erfolgreichen Umsetzung" xmlns:c2pa="http://c2pa.org/manifest"><metadata><c2pa:manifest>AAAWgmp1bWIAAAAeanVtZGMycGEAEQAQgAAAqgA4m3EDYzJwYQAAABZcanVtYgAAAEdqdW1kYzJtYQARABCAAACqADibcQN1cm46YzJwYTowNzNkNmM2YS1lZDI3LTQ4YTktYmIzYi02ZTdjYmZjNDU4NmUAAAADl2p1bWIAAAApanVtZGMyYXMAEQAQgAAAqgA4m3EDYzJwYS5hc3NlcnRpb25zAAAAALxqdW1iAAAARGp1bWRjYm9yABEAEIAAAKoAOJtxE2MycGEuaW5ncmVkaWVudC52MwAAAAAYYzJzaPkKlYzvvFM3ZTT2Fe/kESYAAABwY2JvcqNpZGM6Zm9ybWF0bWltYWdlL3N2Zyt4bWxqaW5zdGFuY2VJRHgseG1wOmlpZDoxMGZmZmQ1NS00MWJkLTQ2YmMtODdhOS1iODFiM2NhZDI0ZTRscmVsYXRpb25zaGlwaHBhcmVudE9mAAAB4mp1bWIAAABBanVtZGNib3IAEQAQgAAAqgA4m3ETYzJwYS5hY3Rpb25zLnYyAAAAABhjMnNonfV101MlelSf30GsMf81kgAAAZljYm9yomdhY3Rpb25zgqJmYWN0aW9ua2MycGEub3BlbmVkanBhcmFtZXRlcnOha2luZ3JlZGllbnRzgaJjdXJseC1zZWxmI2p1bWJmPWMycGEuYXNzZXJ0aW9ucy9jMnBhLmluZ3JlZGllbnQudjNkaGFzaFggwtsryLRCUYAzgg8lu1A9itcaPB/8K9pqn8pwWL9e/WCkZmFjdGlvbngdY29tLmFudGhyb3BpYy5jbGF1ZGUucHJvdmlkZWRqcGFyYW1ldGVyc6F4H2NvbS5hbnRocm9waWMub3JpZ2luLWNvbmZpZGVuY2VndW5rbm93bmtkZXNjcmlwdGlvbnhmQ2xhdWRlIHByb3ZpZGVkIHRoaXMgZmlsZSBhdCB0aGUgcmVxdWVzdCBvZiBhIHVzZXIgYW5kIG1heSBoYXZlIGNyZWF0ZWQgb3IgbW9kaWZpZWQgdGhlIGZpbGUgY29udGVudHMubXNvZnR3YXJlQWdlbnShZG5hbWVmQ2xhdWRlcmFsbEFjdGlvbnNJbmNsdWRlZPUAAADIanVtYgAAAEBqdW1kY2JvcgARABCAAACqADibcRNjMnBhLmhhc2guZGF0YQAAAAAYYzJzaDsoQo4YlMdaE6LBPCqdW40AAACAY2JvcqVjYWxnZnNoYTI1NmNwYWRMAAAAAAAAAAAAAAAAZGhhc2hYIOrddo5wrsAfmSpGjV1DWWFznljaWMKDAhCe7s/JZjg6ZG5hbWVuanVtYmYgbWFuaWZlc3RqZXhjbHVzaW9uc4GiZXN0YXJ0GQE0Zmxlbmd0aBkeBAAAAj5qdW1iAAAAJ2p1bWRjMmNsABEAEIAAAKoAOJtxA2MycGEuY2xhaW0udjIAAAACD2Nib3KlY2FsZ2ZzaGEyNTZpc2lnbmF0dXJleE1zZWxmI2p1bWJmPS9jMnBhL3VybjpjMnBhOjA3M2Q2YzZhLWVkMjctNDhhOS1iYjNiLTZlN2NiZmM0NTg2ZS9jMnBhLnNpZ25hdHVyZWppbnN0YW5jZUlEeCx4bXA6aWlkOjBjNTQ4MWU1LWY0ZDMtNGE5Mi05YzZkLTY1NTdkYTBmNTFiMHJjcmVhdGVkX2Fzc2VydGlvbnODomN1cmx4LXNlbGYjanVtYmY9YzJwYS5hc3NlcnRpb25zL2MycGEuaW5ncmVkaWVudC52M2RoYXNoWCDC2yvItEJRgDOCDyW7UD2K1xo8H/wr2mqfynBYv179YKJjdXJseCpzZWxmI2p1bWJmPWMycGEuYXNzZXJ0aW9ucy9jMnBhLmFjdGlvbnMudjJkaGFzaFggLYMrXfrOhrvrUrz6Ruf2M1Yw5ukLm/TDnQWxV9kunuaiY3VybHgpc2VsZiNqdW1iZj1jMnBhLmFzc2VydGlvbnMvYzJwYS5oYXNoLmRhdGFkaGFzaFggoqlyMElbnSqa/Vt2Z8lN3jp726iGkm5157A+Y7dFZal0Y2xhaW1fZ2VuZXJhdG9yX2luZm+jZG5hbWVvQW50aHJvcGljIEZpbGVzZ3ZlcnNpb25lMS4wLjBrc3BlY1ZlcnNpb25lMi40LjAAABA4anVtYgAAAChqdW1kYzJjcwARABCAAACqADibcQNjMnBhLnNpZ25hdHVyZQAAABAIY2JvctKEWQISogEmGCFZAgowggIGMIIBjaADAgECAhRA5aAK7sI50L64g/oGQgU9Z1UTADAKBggqhkjOPQQDAzBJMRcwFQYDVQQKEw5BbnRocm9waWMsIFBCQzEuMCwGA1UEAxMlQW50aHJvcGljIENvbnRlbnQgQ3JlZGVudGlhbHMgUm9vdCBDQTAeFw0yNjA4MDcxODQzNTZaFw0yODA4MDYxOTQzNTZaMEQxFzAVBgNVBAoTDkFudGhyb3BpYywgUEJDMSkwJwYDVQQDEyBBbnRocm9waWMgQ2xhdWRlIENvbnRlbnQgU2lnbmluZzBZMBMGByqGSM49AgEGCCqGSM49AwEHA0IABJh6CmvLUBgFFNU0vUKlOVtE6djd17L5SuwX0LemFisBM3dkd/3cyjxFA3Qo5S46fX0/ihY0VZ7mfb9KF703t5OjWDBWMA4GA1UdDwEB/wQEAwIHgDAVBgNVHSUEDjAMBgorBgEEAYPoXgIBMAwGA1UdEwEB/wQCMAAwHwYDVR0jBBgwFoAUzlHiBIFOZFsj+OPEz5o+nMHXXMIwCgYIKoZIzj0EAwMDZwAwZAIwMXMdFJ4BetLLVY7ORuE9noqbbAZOZn/aArXyTwFAZfKrPzxF2vPoJNf1+UCdg1XGAjBwX1zd9WGqYkqmL5SFqw1QySjr1zJfpJM9+1rdDwSPLMOPOjKuiXjoU/pUUeG9RwmhY3BhZFkNngAAAAAAAAAAAAAAAAAAAAAAAAAAAAAAAAAAAAAAAAAAAAAAAAAAAAAAAAAAAAAAAAAAAAAAAAAAAAAAAAAAAAAAAAAAAAAAAAAAAAAAAAAAAAAAAAAAAAAAAAAAAAAAAAAAAAAAAAAAAAAAAAAAAAAAAAAAAAAAAAAAAAAAAAAAAAAAAAAAAAAAAAAAAAAAAAAAAAAAAAAAAAAAAAAAAAAAAAAAAAAAAAAAAAAAAAAAAAAAAAAAAAAAAAAAAAAAAAAAAAAAAAAAAAAAAAAAAAAAAAAAAAAAAAAAAAAAAAAAAAAAAAAAAAAAAAAAAAAAAAAAAAAAAAAAAAAAAAAAAAAAAAAAAAAAAAAAAAAAAAAAAAAAAAAAAAAAAAAAAAAAAAAAAAAAAAAAAAAAAAAAAAAAAAAAAAAAAAAAAAAAAAAAAAAAAAAAAAAAAAAAAAAAAAAAAAAAAAAAAAAAAAAAAAAAAAAAAAAAAAAAAAAAAAAAAAAAAAAAAAAAAAAAAAAAAAAAAAAAAAAAAAAAAAAAAAAAAAAAAAAAAAAAAAAAAAAAAAAAAAAAAAAAAAAAAAAAAAAAAAAAAAAAAAAAAAAAAAAAAAAAAAAAAAAAAAAAAAAAAAAAAAAAAAAAAAAAAAAAAAAAAAAAAAAAAAAAAAAAAAAAAAAAAAAAAAAAAAAAAAAAAAAAAAAAAAAAAAAAAAAAAAAAAAAAAAAAAAAAAAAAAAAAAAAAAAAAAAAAAAAAAAAAAAAAAAAAAAAAAAAAAAAAAAAAAAAAAAAAAAAAAAAAAAAAAAAAAAAAAAAAAAAAAAAAAAAAAAAAAAAAAAAAAAAAAAAAAAAAAAAAAAAAAAAAAAAAAAAAAAAAAAAAAAAAAAAAAAAAAAAAAAAAAAAAAAAAAAAAAAAAAAAAAAAAAAAAAAAAAAAAAAAAAAAAAAAAAAAAAAAAAAAAAAAAAAAAAAAAAAAAAAAAAAAAAAAAAAAAAAAAAAAAAAAAAAAAAAAAAAAAAAAAAAAAAAAAAAAAAAAAAAAAAAAAAAAAAAAAAAAAAAAAAAAAAAAAAAAAAAAAAAAAAAAAAAAAAAAAAAAAAAAAAAAAAAAAAAAAAAAAAAAAAAAAAAAAAAAAAAAAAAAAAAAAAAAAAAAAAAAAAAAAAAAAAAAAAAAAAAAAAAAAAAAAAAAAAAAAAAAAAAAAAAAAAAAAAAAAAAAAAAAAAAAAAAAAAAAAAAAAAAAAAAAAAAAAAAAAAAAAAAAAAAAAAAAAAAAAAAAAAAAAAAAAAAAAAAAAAAAAAAAAAAAAAAAAAAAAAAAAAAAAAAAAAAAAAAAAAAAAAAAAAAAAAAAAAAAAAAAAAAAAAAAAAAAAAAAAAAAAAAAAAAAAAAAAAAAAAAAAAAAAAAAAAAAAAAAAAAAAAAAAAAAAAAAAAAAAAAAAAAAAAAAAAAAAAAAAAAAAAAAAAAAAAAAAAAAAAAAAAAAAAAAAAAAAAAAAAAAAAAAAAAAAAAAAAAAAAAAAAAAAAAAAAAAAAAAAAAAAAAAAAAAAAAAAAAAAAAAAAAAAAAAAAAAAAAAAAAAAAAAAAAAAAAAAAAAAAAAAAAAAAAAAAAAAAAAAAAAAAAAAAAAAAAAAAAAAAAAAAAAAAAAAAAAAAAAAAAAAAAAAAAAAAAAAAAAAAAAAAAAAAAAAAAAAAAAAAAAAAAAAAAAAAAAAAAAAAAAAAAAAAAAAAAAAAAAAAAAAAAAAAAAAAAAAAAAAAAAAAAAAAAAAAAAAAAAAAAAAAAAAAAAAAAAAAAAAAAAAAAAAAAAAAAAAAAAAAAAAAAAAAAAAAAAAAAAAAAAAAAAAAAAAAAAAAAAAAAAAAAAAAAAAAAAAAAAAAAAAAAAAAAAAAAAAAAAAAAAAAAAAAAAAAAAAAAAAAAAAAAAAAAAAAAAAAAAAAAAAAAAAAAAAAAAAAAAAAAAAAAAAAAAAAAAAAAAAAAAAAAAAAAAAAAAAAAAAAAAAAAAAAAAAAAAAAAAAAAAAAAAAAAAAAAAAAAAAAAAAAAAAAAAAAAAAAAAAAAAAAAAAAAAAAAAAAAAAAAAAAAAAAAAAAAAAAAAAAAAAAAAAAAAAAAAAAAAAAAAAAAAAAAAAAAAAAAAAAAAAAAAAAAAAAAAAAAAAAAAAAAAAAAAAAAAAAAAAAAAAAAAAAAAAAAAAAAAAAAAAAAAAAAAAAAAAAAAAAAAAAAAAAAAAAAAAAAAAAAAAAAAAAAAAAAAAAAAAAAAAAAAAAAAAAAAAAAAAAAAAAAAAAAAAAAAAAAAAAAAAAAAAAAAAAAAAAAAAAAAAAAAAAAAAAAAAAAAAAAAAAAAAAAAAAAAAAAAAAAAAAAAAAAAAAAAAAAAAAAAAAAAAAAAAAAAAAAAAAAAAAAAAAAAAAAAAAAAAAAAAAAAAAAAAAAAAAAAAAAAAAAAAAAAAAAAAAAAAAAAAAAAAAAAAAAAAAAAAAAAAAAAAAAAAAAAAAAAAAAAAAAAAAAAAAAAAAAAAAAAAAAAAAAAAAAAAAAAAAAAAAAAAAAAAAAAAAAAAAAAAAAAAAAAAAAAAAAAAAAAAAAAAAAAAAAAAAAAAAAAAAAAAAAAAAAAAAAAAAAAAAAAAAAAAAAAAAAAAAAAAAAAAAAAAAAAAAAAAAAAAAAAAAAAAAAAAAAAAAAAAAAAAAAAAAAAAAAAAAAAAAAAAAAAAAAAAAAAAAAAAAAAAAAAAAAAAAAAAAAAAAAAAAAAAAAAAAAAAAAAAAAAAAAAAAAAAAAAAAAAAAAAAAAAAAAAAAAAAAAAAAAAAAAAAAAAAAAAAAAAAAAAAAAAAAAAAAAAAAAAAAAAAAAAAAAAAAAAAAAAAAAAAAAAAAAAAAAAAAAAAAAAAAAAAAAAAAAAAAAAAAAAAAAAAAAAAAAAAAAAAAAAAAAAAAAAAAAAAAAAAAAAAAAAAAAAAAAAAAAAAAAAAAAAAAAAAAAAAAAAAAAAAAAAAAAAAAAAAAAAAAAAAAAAAAAAAAAAAAAAAAAAAAAAAAAAAAAAAAAAAAAAAAAAAAAAAAAAAAAAAAAAAAAAAAAAAAAAAAAAAAAAAAAAAAAAAAAAAAAAAAAAAAAAAAAAAAAAAAAAAAAAAAAAAAAAAAAAAAAAAAAAAAAAAAAAAAAAAAAAAAAAAAAAAAAAAAAAAAAAAAAAAAAAAAAAAAAAAAAAAAAAAAAAAAAAAAAAAAAAAAAAAAAAAAAAAAAAAAAAAAAAAAAAAAAAAAAAAAAAAAAAAAAAAAAAAAAAAAAAAAAAAAAAAAAAAAAAAAAAAAAAAAAAAAAAAAAAAAAAAAAAAAAAAAAAAAAAAAAAAAAAAAAAAAAAAAAAAAAAAAAAAAAAAAAAAAAAAAAAAAAAAAAAAAAAAAAAAAAAAAAAAAAAAAAAAAAAAAAAAAAAAAAAAAAAAAAAAAAAAAAAAAAAAAAAAAAAAAAAAAAAAAAAAAAAAAAAAAAAAAAAAAAAAAAAAAAAAAAAAAAAAAAAAAAAAAAAAAAAAAAAAAAAAAAAAAAAAAAAAAAAAAAAAAAAAAAAAAAAAAAAAAAAAAAAAAAAAAAAAAAAAAAAAAAAAAAAAAAAAAAAAAAAAAAAAAAAAAAAAAAAAAAAAAAAAAAAAAAAAAAAAAAAAAAAAAAAAAAAAAAAAAAAAAAAAAAAAAAAAAAAAAAAAAAAAAAAAAAAAAAAAAAAAAAAAAAAAAAAAAAAAAAAAAAAAAAAAAAAAAAAAAAAAAAAAAAAAAAAAAAAAAAAAAAAAAAAAAAAAAAAAAAAAAAAAAAAAAAAAAAAAAAAAAAAAAAAAAAAAAAAAAAAAAAAAAAAAAAAAAAAAAAAAAAAAAAAAAAAAAAAAAAAAAAAAAAAAAAAAAAAAAAAAAAAAAAAAAAAAAAAAAAAAAAAAAAAAAAAAAAAAAAAAAAAAAAAAAAAAAAAAAAAAAAAAAAAAAAAAAAAAAAAAAAAAAAAAAAAAAAAAAAAAAAAAAAAAAAAAAAAAAAAAAAAAAAAAAAAAAAAAAAAAAAAAAAAAAAAAAAAAAAAAAAAAAAAAAAAAAAAAAAAAAAAAAAAAAAAAAAAAAAAAAAAAAAAAAAAAAAAAAAAAAAAAAAAAAAAAAAAAAAAAAAAAAAAAAAAAAAAAAAAAAAAAAAAAAAAAAAAAAAAAAAAAAAAAAAAAAAAAAAAAAAAAAAAAAAAAAAAAAAAAAAAAAAAAAAAAAAAAAAAAAAAAAAAAAAAAAAAAAAAAAAAAAAAAAAAAAAAAAAAAAAAAAAAAAAAAAAAAAAAAAAAAAAAAAAAAAAAAAAAAAAAAAAAAAAAAAAAAAAAAAAAAAAAAAAAAAAAAAAAAAAAAAAAAAAAAAAAAAAAAAAAAAAAAAAAAAAAAAAAAAAAAAAAAAAAAAAAAAAAAAAAAAAAAAAAAAAAAAAAAAAAAAAAAAAAAAAAAAAAAAAAAAAAAAAAAAAAAAAAAAAAAAAAAAAAAAAAAAAAAAAAAAAAAAAAAAAAAAAAAAAAAAAAAAAAAAAAAAAAAAAAAAAAAAAAAAAAAAAAAAAAAAAAAAAAAAAAAAAAAAAAAAAAAAAAAAAAAAAAAAAAAAAAAAAAAAAAAAAAAAAAAAAAAAAAAAAAAAAAAAAAAAAAAAAAAAAAAAAAAAAAAAAAAAAAAAAAAAPZYQCZreHtQO/BPwUjgxYDfjxQCfkr8s7U+q91si1X90ub9gGx+xqUuQ2B3/0zpODt/gk8c3QYwLEYZGohJkTHFKTY=</c2pa:manifest></metadata><defs>
<radialGradient id="bg" cx="85%" cy="5%" r="120%"><stop offset="0" stop-color="#0F2A55"/><stop offset=".5" stop-color="#081734"/><stop offset="1" stop-color="#030A1A"/></radialGradient>
<radialGradient id="aura" cx="50%" cy="50%" r="50%"><stop offset="0" stop-color="#FFC94D" stop-opacity=".5"/><stop offset="1" stop-color="#FFC94D" stop-opacity="0"/></radialGradient>
<radialGradient id="auraB" cx="50%" cy="50%" r="50%"><stop offset="0" stop-color="#4C8DFF" stop-opacity=".22"/><stop offset="1" stop-color="#4C8DFF" stop-opacity="0"/></radialGradient>
<linearGradient id="road" gradientUnits="userSpaceOnUse" x1="320" y1="448" x2="1100" y2="232"><stop offset="0" stop-color="#38C6D9"/><stop offset=".28" stop-color="#22D3A6"/><stop offset=".55" stop-color="#4C8DFF"/><stop offset=".82" stop-color="#FF9A3C"/><stop offset="1" stop-color="#FFC94D"/></linearGradient>
<filter id="glow" filterUnits="userSpaceOnUse" x="0" y="0" width="1200" height="690"><feGaussianBlur stdDeviation="9"/></filter>
<filter id="drop" x="-15%" y="-20%" width="130%" height="170%"><feDropShadow dx="0" dy="12" stdDeviation="14" flood-color="#020814" flood-opacity=".28"/></filter>
</defs>
<style>
.flow{stroke-dasharray:2 22;animation:flow 2.2s linear infinite}
@keyframes flow{to{stroke-dashoffset:-48}}
.ring{transform-box:fill-box;transform-origin:center;animation:ring 3s ease-out infinite}
@keyframes ring{0%{transform:scale(.6);opacity:.8}100%{transform:scale(1.9);opacity:0}}
@media (prefers-reduced-motion: reduce){.flow,.ring{animation:none} .ring{opacity:0}}
</style><rect width="1200" height="690" rx="28" fill="url(#bg)"/><ellipse cx="960.0" cy="241.49999999999997" rx="480.0" ry="310.5" fill="url(#auraB)"/><path d="M1100 470L-580 690 M1100 470L-460 690 M1100 470L-340 690 M1100 470L-220 690 M1100 470L-100 690 M1100 470L20 690 M1100 470L140 690 M1100 470L260 690 M1100 470L380 690 M1100 470L500 690 M1100 470L620 690 M1100 470L740 690 M1100 470L860 690 M1100 470L980 690 M1100 470L1100 690 M1100 470L1220 690 M1100 470L1340 690 M1100 470L1460 690 M1100 470L1580 690 M1100 470L1700 690 M1100 470L1820 690 M1100 470L1940 690 M1100 470L2060 690 M1100 470L2180 690 M1100 470L2300 690 M1100 470L2420 690 M1100 470L2540 690 M1100 470L2660 690 M1100 470L2780 690 M0 470H1200 M0 476H1200 M0 484H1200 M0 495H1200 M0 510H1200 M0 530H1200 M0 557H1200 M0 593H1200 M0 642H1200" stroke="#4C8DFF" stroke-opacity="0.1" fill="none"/><rect x="0" y="410" width="1200" height="70" fill="url(#bg)" opacity=".0"/><path d="M846 538L846 572 M880 640L914 640 M1050 334L1050 368 M880 164L914 164 M880 164L880 198 M846 504L880 504 M846 504L846 538 M948 436L948 470 M982 572L1016 572 M846 300L880 300 M846 300L846 334 M982 334L1016 334 M1050 538L1084 538 M948 402L982 402 M948 402L948 436 M846 470L846 504 M1118 572L1152 572 M846 198L880 198 M1050 504L1050 538 M1016 606L1016 640 M914 232L914 266 M914 470L948 470 M812 300L846 300 M1152 402L1152 436 M1050 470L1050 504 M846 640L880 640 M948 334L982 334 M846 164L880 164 M846 164L846 198 M812 504L846 504 M914 198L914 232 M1016 572L1016 606 M1016 334L1050 334 M812 266L812 300 M1084 368L1118 368 M982 232L1016 232 M982 232L982 266 M1016 538L1050 538 M1016 538L1016 572 M880 198L914 198 M914 164L948 164 M914 164L914 198 M1084 572L1118 572 M982 198L982 232 M1050 164L1050 198 M1152 572L1152 606 M1118 436L1152 436 M1118 436L1118 470 M914 606L914 640 M1050 130L1084 130 M1050 130L1050 164 M1016 504L1050 504 M1016 504L1016 538 M1084 538L1084 572 M1152 538L1152 572 M1050 368L1084 368" stroke="#4C8DFF" stroke-opacity="0.16" stroke-width="1"/><circle cx="531.3" cy="272.9" r="1.6" fill="#8FD8FF" fill-opacity="0.36"/><circle cx="210.5" cy="126.7" r="1.2" fill="#8FD8FF" fill-opacity="0.25"/><circle cx="542.3" cy="331.8" r="1.5" fill="#8FD8FF" fill-opacity="0.35"/><circle cx="1050.0" cy="538.0" r="2.2" fill="#8FD8FF" fill-opacity="0.55"/><circle cx="360.2" cy="555.2" r="1.3" fill="#8FD8FF" fill-opacity="0.27"/><circle cx="194.1" cy="309.9" r="1.2" fill="#8FD8FF" fill-opacity="0.25"/><circle cx="688.6" cy="121.0" r="1.8" fill="#8FD8FF" fill-opacity="0.44"/><circle cx="844.9" cy="575.1" r="2.1" fill="#8FD8FF" fill-opacity="0.52"/><circle cx="982.1" cy="265.9" r="2.2" fill="#8FD8FF" fill-opacity="0.55"/><circle cx="272.6" cy="688.4" r="1.2" fill="#8FD8FF" fill-opacity="0.26"/><circle cx="947.9" cy="436.4" r="2.2" fill="#8FD8FF" fill-opacity="0.55"/><circle cx="779.7" cy="580.3" r="2.0" fill="#8FD8FF" fill-opacity="0.49"/><circle cx="117.4" cy="420.6" r="1.2" fill="#8FD8FF" fill-opacity="0.25"/><circle cx="414.7" cy="508.9" r="1.3" fill="#8FD8FF" fill-opacity="0.28"/><circle cx="248.4" cy="386.8" r="1.2" fill="#8FD8FF" fill-opacity="0.25"/><circle cx="588.2" cy="435.1" r="1.7" fill="#8FD8FF" fill-opacity="0.40"/><circle cx="1050.0" cy="198.0" r="2.2" fill="#8FD8FF" fill-opacity="0.55"/><circle cx="315.3" cy="157.0" r="1.3" fill="#8FD8FF" fill-opacity="0.27"/><circle cx="279.2" cy="191.9" r="1.2" fill="#8FD8FF" fill-opacity="0.25"/><circle cx="846.5" cy="474.4" r="2.1" fill="#8FD8FF" fill-opacity="0.52"/><circle cx="634.3" cy="358.0" r="1.7" fill="#8FD8FF" fill-opacity="0.40"/><circle cx="176.9" cy="181.0" r="1.2" fill="#8FD8FF" fill-opacity="0.25"/><circle cx="420.1" cy="551.7" r="1.4" fill="#8FD8FF" fill-opacity="0.31"/><circle cx="77.7" cy="519.9" r="1.2" fill="#8FD8FF" fill-opacity="0.25"/><circle cx="845.6" cy="538.2" r="2.1" fill="#8FD8FF" fill-opacity="0.52"/><circle cx="226.6" cy="425.9" r="1.2" fill="#8FD8FF" fill-opacity="0.25"/><circle cx="535.8" cy="419.9" r="1.6" fill="#8FD8FF" fill-opacity="0.36"/><circle cx="656.9" cy="466.7" r="1.8" fill="#8FD8FF" fill-opacity="0.44"/><circle cx="706.0" cy="132.9" r="1.9" fill="#8FD8FF" fill-opacity="0.46"/><circle cx="315.9" cy="146.6" r="1.2" fill="#8FD8FF" fill-opacity="0.26"/><circle cx="780.2" cy="499.5" r="2.0" fill="#8FD8FF" fill-opacity="0.49"/><circle cx="1084.0" cy="130.0" r="2.2" fill="#8FD8FF" fill-opacity="0.55"/><circle cx="36.9" cy="499.2" r="1.2" fill="#8FD8FF" fill-opacity="0.25"/><circle cx="705.6" cy="293.9" r="1.9" fill="#8FD8FF" fill-opacity="0.46"/><circle cx="809.0" cy="400.1" r="2.1" fill="#8FD8FF" fill-opacity="0.51"/><circle cx="43.3" cy="235.8" r="1.2" fill="#8FD8FF" fill-opacity="0.25"/><circle cx="598.9" cy="377.4" r="1.7" fill="#8FD8FF" fill-opacity="0.40"/><circle cx="244.9" cy="280.6" r="1.2" fill="#8FD8FF" fill-opacity="0.25"/><circle cx="528.7" cy="639.8" r="1.5" fill="#8FD8FF" fill-opacity="0.35"/><circle cx="226.3" cy="439.3" r="1.2" fill="#8FD8FF" fill-opacity="0.25"/><circle cx="982.0" cy="401.9" r="2.2" fill="#8FD8FF" fill-opacity="0.55"/><circle cx="1152.0" cy="334.0" r="2.2" fill="#8FD8FF" fill-opacity="0.55"/><circle cx="389.4" cy="431.9" r="1.4" fill="#8FD8FF" fill-opacity="0.30"/><circle cx="209.7" cy="495.4" r="1.2" fill="#8FD8FF" fill-opacity="0.25"/><circle cx="1152.0" cy="402.0" r="2.2" fill="#8FD8FF" fill-opacity="0.55"/><circle cx="645.1" cy="550.7" r="1.8" fill="#8FD8FF" fill-opacity="0.42"/><circle cx="913.0" cy="265.9" r="2.2" fill="#8FD8FF" fill-opacity="0.54"/><circle cx="1118.0" cy="572.0" r="2.2" fill="#8FD8FF" fill-opacity="0.55"/><circle cx="524.0" cy="188.7" r="1.5" fill="#8FD8FF" fill-opacity="0.35"/><circle cx="1152.0" cy="436.0" r="2.2" fill="#8FD8FF" fill-opacity="0.55"/><circle cx="124.7" cy="408.2" r="1.2" fill="#8FD8FF" fill-opacity="0.25"/><circle cx="141.1" cy="377.5" r="1.2" fill="#8FD8FF" fill-opacity="0.25"/><circle cx="129.9" cy="88.7" r="1.2" fill="#8FD8FF" fill-opacity="0.25"/><circle cx="1118.0" cy="436.0" r="2.2" fill="#8FD8FF" fill-opacity="0.55"/><circle cx="915.5" cy="164.4" r="2.2" fill="#8FD8FF" fill-opacity="0.54"/><circle cx="737.5" cy="275.5" r="2.0" fill="#8FD8FF" fill-opacity="0.48"/><circle cx="1050.0" cy="164.0" r="2.2" fill="#8FD8FF" fill-opacity="0.55"/><circle cx="240.2" cy="275.9" r="1.2" fill="#8FD8FF" fill-opacity="0.25"/><circle cx="300.7" cy="137.4" r="1.2" fill="#8FD8FF" fill-opacity="0.26"/><circle cx="881.7" cy="162.4" r="2.1" fill="#8FD8FF" fill-opacity="0.53"/><circle cx="1152.0" cy="572.0" r="2.2" fill="#8FD8FF" fill-opacity="0.55"/><circle cx="59.9" cy="114.6" r="1.2" fill="#8FD8FF" fill-opacity="0.25"/><circle cx="130.1" cy="147.2" r="1.2" fill="#8FD8FF" fill-opacity="0.25"/><circle cx="180.0" cy="619.8" r="1.2" fill="#8FD8FF" fill-opacity="0.25"/><circle cx="781.0" cy="539.8" r="2.0" fill="#8FD8FF" fill-opacity="0.49"/><circle cx="807.3" cy="399.4" r="2.1" fill="#8FD8FF" fill-opacity="0.51"/><circle cx="273.9" cy="289.0" r="1.2" fill="#8FD8FF" fill-opacity="0.25"/><circle cx="846.7" cy="193.2" r="2.1" fill="#8FD8FF" fill-opacity="0.52"/><circle cx="1016.0" cy="538.0" r="2.2" fill="#8FD8FF" fill-opacity="0.55"/><circle cx="947.8" cy="164.0" r="2.2" fill="#8FD8FF" fill-opacity="0.55"/><circle cx="724.6" cy="569.3" r="1.9" fill="#8FD8FF" fill-opacity="0.46"/><circle cx="33.4" cy="343.0" r="1.2" fill="#8FD8FF" fill-opacity="0.25"/><circle cx="136.0" cy="531.8" r="1.2" fill="#8FD8FF" fill-opacity="0.25"/><circle cx="50.3" cy="513.3" r="1.2" fill="#8FD8FF" fill-opacity="0.25"/><circle cx="571.9" cy="209.5" r="1.7" fill="#8FD8FF" fill-opacity="0.38"/><circle cx="1152.0" cy="538.0" r="2.2" fill="#8FD8FF" fill-opacity="0.55"/><circle cx="231.1" cy="101.4" r="1.2" fill="#8FD8FF" fill-opacity="0.25"/><circle cx="846.3" cy="164.7" r="2.1" fill="#8FD8FF" fill-opacity="0.52"/><circle cx="849.3" cy="298.3" r="2.1" fill="#8FD8FF" fill-opacity="0.52"/><circle cx="304.7" cy="148.5" r="1.2" fill="#8FD8FF" fill-opacity="0.25"/><circle cx="655.7" cy="414.7" r="1.8" fill="#8FD8FF" fill-opacity="0.42"/><circle cx="1118.0" cy="368.0" r="2.2" fill="#8FD8FF" fill-opacity="0.55"/><circle cx="172.2" cy="435.2" r="1.2" fill="#8FD8FF" fill-opacity="0.25"/><circle cx="220.2" cy="383.9" r="1.2" fill="#8FD8FF" fill-opacity="0.25"/><circle cx="1016.0" cy="538.0" r="2.2" fill="#8FD8FF" fill-opacity="0.55"/><circle cx="787.5" cy="569.5" r="2.0" fill="#8FD8FF" fill-opacity="0.49"/><circle cx="562.9" cy="603.1" r="1.6" fill="#8FD8FF" fill-opacity="0.36"/><circle cx="912.8" cy="639.7" r="2.2" fill="#8FD8FF" fill-opacity="0.54"/><circle cx="295.4" cy="324.9" r="1.3" fill="#8FD8FF" fill-opacity="0.27"/><circle cx="1152.0" cy="606.0" r="2.2" fill="#8FD8FF" fill-opacity="0.55"/><circle cx="328.2" cy="365.2" r="1.2" fill="#8FD8FF" fill-opacity="0.26"/><circle cx="1118.0" cy="470.0" r="2.2" fill="#8FD8FF" fill-opacity="0.55"/><circle cx="646.4" cy="575.9" r="1.8" fill="#8FD8FF" fill-opacity="0.42"/><circle cx="597.8" cy="321.8" r="1.7" fill="#8FD8FF" fill-opacity="0.40"/><circle cx="842.6" cy="332.5" r="2.1" fill="#8FD8FF" fill-opacity="0.52"/><circle cx="718.9" cy="628.4" r="1.9" fill="#8FD8FF" fill-opacity="0.46"/><circle cx="1050.0" cy="334.0" r="2.2" fill="#8FD8FF" fill-opacity="0.55"/><circle cx="117.6" cy="593.5" r="1.2" fill="#8FD8FF" fill-opacity="0.25"/><circle cx="879.8" cy="162.2" r="2.1" fill="#8FD8FF" fill-opacity="0.53"/><circle cx="570.5" cy="221.6" r="1.6" fill="#8FD8FF" fill-opacity="0.36"/><circle cx="558.4" cy="309.9" r="1.6" fill="#8FD8FF" fill-opacity="0.36"/><circle cx="62.1" cy="352.5" r="1.2" fill="#8FD8FF" fill-opacity="0.25"/><circle cx="366.7" cy="599.3" r="1.4" fill="#8FD8FF" fill-opacity="0.30"/><circle cx="242.9" cy="242.1" r="1.2" fill="#8FD8FF" fill-opacity="0.25"/><circle cx="92.8" cy="529.5" r="1.2" fill="#8FD8FF" fill-opacity="0.25"/><circle cx="731.7" cy="125.6" r="2.0" fill="#8FD8FF" fill-opacity="0.48"/><circle cx="841.6" cy="641.5" r="2.1" fill="#8FD8FF" fill-opacity="0.52"/><circle cx="1084.0" cy="538.0" r="2.2" fill="#8FD8FF" fill-opacity="0.55"/><circle cx="616.7" cy="177.6" r="1.7" fill="#8FD8FF" fill-opacity="0.40"/><circle cx="1152.0" cy="402.0" r="2.2" fill="#8FD8FF" fill-opacity="0.55"/><circle cx="815.9" cy="500.9" r="2.1" fill="#8FD8FF" fill-opacity="0.51"/><circle cx="589.2" cy="259.5" r="1.7" fill="#8FD8FF" fill-opacity="0.38"/><circle cx="1152.0" cy="232.0" r="2.2" fill="#8FD8FF" fill-opacity="0.55"/><circle cx="151.4" cy="443.2" r="1.2" fill="#8FD8FF" fill-opacity="0.25"/><circle cx="374.7" cy="301.6" r="1.4" fill="#8FD8FF" fill-opacity="0.30"/><circle cx="1016.0" cy="232.0" r="2.2" fill="#8FD8FF" fill-opacity="0.55"/><circle cx="745.4" cy="575.9" r="2.0" fill="#8FD8FF" fill-opacity="0.48"/><circle cx="1016.0" cy="640.0" r="2.2" fill="#8FD8FF" fill-opacity="0.55"/><circle cx="189.5" cy="259.7" r="1.2" fill="#8FD8FF" fill-opacity="0.25"/><circle cx="877.4" cy="502.5" r="2.1" fill="#8FD8FF" fill-opacity="0.53"/><circle cx="82.2" cy="266.5" r="1.2" fill="#8FD8FF" fill-opacity="0.25"/><circle cx="565.0" cy="533.6" r="1.6" fill="#8FD8FF" fill-opacity="0.36"/><circle cx="982.0" cy="198.1" r="2.2" fill="#8FD8FF" fill-opacity="0.55"/><circle cx="243.5" cy="223.3" r="1.2" fill="#8FD8FF" fill-opacity="0.25"/><circle cx="234.4" cy="198.9" r="1.2" fill="#8FD8FF" fill-opacity="0.25"/><circle cx="915.1" cy="538.9" r="2.2" fill="#8FD8FF" fill-opacity="0.54"/><circle cx="366.0" cy="542.5" r="1.3" fill="#8FD8FF" fill-opacity="0.27"/><circle cx="341.3" cy="276.0" r="1.3" fill="#8FD8FF" fill-opacity="0.28"/><circle cx="657.7" cy="127.5" r="1.8" fill="#8FD8FF" fill-opacity="0.42"/><circle cx="913.4" cy="539.4" r="2.2" fill="#8FD8FF" fill-opacity="0.54"/><circle cx="694.6" cy="647.3" r="1.8" fill="#8FD8FF" fill-opacity="0.44"/><circle cx="657.7" cy="627.9" r="1.8" fill="#8FD8FF" fill-opacity="0.44"/><circle cx="59.4" cy="249.6" r="1.2" fill="#8FD8FF" fill-opacity="0.25"/><circle cx="1084.0" cy="300.0" r="2.2" fill="#8FD8FF" fill-opacity="0.55"/><circle cx="398.3" cy="334.0" r="1.4" fill="#8FD8FF" fill-opacity="0.31"/><circle cx="982.0" cy="232.1" r="2.2" fill="#8FD8FF" fill-opacity="0.55"/><circle cx="332.7" cy="224.7" r="1.3" fill="#8FD8FF" fill-opacity="0.27"/><circle cx="116.8" cy="101.0" r="1.2" fill="#8FD8FF" fill-opacity="0.25"/><circle cx="170.2" cy="686.8" r="1.2" fill="#8FD8FF" fill-opacity="0.25"/><circle cx="722.0" cy="476.3" r="1.9" fill="#8FD8FF" fill-opacity="0.46"/><circle cx="339.3" cy="208.5" r="1.2" fill="#8FD8FF" fill-opacity="0.26"/><circle cx="124.1" cy="181.0" r="1.2" fill="#8FD8FF" fill-opacity="0.25"/><circle cx="500.8" cy="193.0" r="1.5" fill="#8FD8FF" fill-opacity="0.33"/><circle cx="492.5" cy="661.0" r="1.5" fill="#8FD8FF" fill-opacity="0.35"/><circle cx="915.2" cy="198.7" r="2.2" fill="#8FD8FF" fill-opacity="0.54"/><circle cx="879.8" cy="637.2" r="2.1" fill="#8FD8FF" fill-opacity="0.53"/><circle cx="948.2" cy="333.8" r="2.2" fill="#8FD8FF" fill-opacity="0.55"/><circle cx="1016.0" cy="606.0" r="2.2" fill="#8FD8FF" fill-opacity="0.55"/><circle cx="440.5" cy="626.0" r="1.4" fill="#8FD8FF" fill-opacity="0.30"/><circle cx="811.2" cy="501.9" r="2.1" fill="#8FD8FF" fill-opacity="0.51"/><circle cx="883.1" cy="370.0" r="2.1" fill="#8FD8FF" fill-opacity="0.53"/><circle cx="552.7" cy="501.6" r="1.7" fill="#8FD8FF" fill-opacity="0.38"/><circle cx="413.1" cy="271.8" r="1.4" fill="#8FD8FF" fill-opacity="0.31"/><circle cx="880.9" cy="297.6" r="2.1" fill="#8FD8FF" fill-opacity="0.53"/><circle cx="369.1" cy="563.6" r="1.3" fill="#8FD8FF" fill-opacity="0.28"/><circle cx="58.3" cy="528.0" r="1.2" fill="#8FD8FF" fill-opacity="0.25"/><circle cx="121.5" cy="356.8" r="1.2" fill="#8FD8FF" fill-opacity="0.25"/><circle cx="35.9" cy="355.9" r="1.2" fill="#8FD8FF" fill-opacity="0.25"/><circle cx="423.7" cy="267.1" r="1.4" fill="#8FD8FF" fill-opacity="0.31"/><circle cx="300.8" cy="141.7" r="1.2" fill="#8FD8FF" fill-opacity="0.25"/><circle cx="1016.0" cy="436.0" r="2.2" fill="#8FD8FF" fill-opacity="0.55"/><circle cx="78.0" cy="453.1" r="1.2" fill="#8FD8FF" fill-opacity="0.25"/><circle cx="219.8" cy="215.1" r="1.2" fill="#8FD8FF" fill-opacity="0.25"/><circle cx="-21.1" cy="187.5" r="1.2" fill="#8FD8FF" fill-opacity="0.25"/><circle cx="368.3" cy="134.1" r="1.3" fill="#8FD8FF" fill-opacity="0.28"/><circle cx="1118.0" cy="470.0" r="2.2" fill="#8FD8FF" fill-opacity="0.55"/><circle cx="1050.0" cy="470.0" r="2.2" fill="#8FD8FF" fill-opacity="0.55"/><circle cx="76.8" cy="549.6" r="1.2" fill="#8FD8FF" fill-opacity="0.25"/><circle cx="882.9" cy="195.9" r="2.1" fill="#8FD8FF" fill-opacity="0.53"/><circle cx="914.0" cy="232.2" r="2.2" fill="#8FD8FF" fill-opacity="0.54"/><circle cx="882.2" cy="302.4" r="2.1" fill="#8FD8FF" fill-opacity="0.53"/><circle cx="850.4" cy="502.6" r="2.1" fill="#8FD8FF" fill-opacity="0.52"/><circle cx="913.1" cy="607.0" r="2.2" fill="#8FD8FF" fill-opacity="0.54"/><circle cx="1050.0" cy="504.0" r="2.2" fill="#8FD8FF" fill-opacity="0.55"/><circle cx="841.2" cy="636.6" r="2.1" fill="#8FD8FF" fill-opacity="0.52"/><circle cx="19.6" cy="626.9" r="1.2" fill="#8FD8FF" fill-opacity="0.25"/><circle cx="205.5" cy="507.2" r="1.2" fill="#8FD8FF" fill-opacity="0.25"/><circle cx="126.5" cy="207.2" r="1.2" fill="#8FD8FF" fill-opacity="0.25"/><circle cx="730.9" cy="496.0" r="2.0" fill="#8FD8FF" fill-opacity="0.48"/><circle cx="241.5" cy="427.8" r="1.2" fill="#8FD8FF" fill-opacity="0.25"/><circle cx="171.8" cy="284.9" r="1.2" fill="#8FD8FF" fill-opacity="0.25"/><circle cx="344.6" cy="216.9" r="1.3" fill="#8FD8FF" fill-opacity="0.27"/><circle cx="540.2" cy="415.5" r="1.5" fill="#8FD8FF" fill-opacity="0.35"/><circle cx="1118.0" cy="572.0" r="2.2" fill="#8FD8FF" fill-opacity="0.55"/><circle cx="708.9" cy="338.0" r="1.9" fill="#8FD8FF" fill-opacity="0.46"/><circle cx="108.7" cy="271.0" r="1.2" fill="#8FD8FF" fill-opacity="0.25"/><circle cx="282.0" cy="307.5" r="1.2" fill="#8FD8FF" fill-opacity="0.25"/><circle cx="223.1" cy="641.2" r="1.2" fill="#8FD8FF" fill-opacity="0.25"/><circle cx="262.3" cy="680.2" r="1.2" fill="#8FD8FF" fill-opacity="0.25"/><circle cx="780.1" cy="536.9" r="2.0" fill="#8FD8FF" fill-opacity="0.49"/><circle cx="303.8" cy="446.1" r="1.2" fill="#8FD8FF" fill-opacity="0.25"/><circle cx="842.0" cy="328.8" r="2.1" fill="#8FD8FF" fill-opacity="0.52"/><circle cx="669.8" cy="186.0" r="1.8" fill="#8FD8FF" fill-opacity="0.44"/><circle cx="157.6" cy="520.1" r="1.2" fill="#8FD8FF" fill-opacity="0.25"/><circle cx="1152.0" cy="334.0" r="2.2" fill="#8FD8FF" fill-opacity="0.55"/><circle cx="103.3" cy="463.4" r="1.2" fill="#8FD8FF" fill-opacity="0.25"/><circle cx="563.4" cy="348.9" r="1.7" fill="#8FD8FF" fill-opacity="0.38"/><circle cx="501.9" cy="372.8" r="1.5" fill="#8FD8FF" fill-opacity="0.33"/><circle cx="1016.0" cy="572.0" r="2.2" fill="#8FD8FF" fill-opacity="0.55"/><circle cx="915.4" cy="641.7" r="2.2" fill="#8FD8FF" fill-opacity="0.54"/><circle cx="1050.0" cy="164.0" r="2.2" fill="#8FD8FF" fill-opacity="0.55"/><circle cx="360.9" cy="200.1" r="1.4" fill="#8FD8FF" fill-opacity="0.30"/><circle cx="1118.0" cy="164.0" r="2.2" fill="#8FD8FF" fill-opacity="0.55"/><circle cx="471.3" cy="365.2" r="1.5" fill="#8FD8FF" fill-opacity="0.33"/><circle cx="1016.0" cy="334.0" r="2.2" fill="#8FD8FF" fill-opacity="0.55"/><circle cx="212.3" cy="596.4" r="1.2" fill="#8FD8FF" fill-opacity="0.25"/><circle cx="128.3" cy="362.6" r="1.2" fill="#8FD8FF" fill-opacity="0.25"/><circle cx="664.0" cy="555.2" r="1.8" fill="#8FD8FF" fill-opacity="0.42"/><circle cx="811.0" cy="306.7" r="2.1" fill="#8FD8FF" fill-opacity="0.51"/><circle cx="1050.0" cy="368.0" r="2.2" fill="#8FD8FF" fill-opacity="0.55"/><circle cx="640.3" cy="147.7" r="1.8" fill="#8FD8FF" fill-opacity="0.42"/><circle cx="692.8" cy="368.8" r="1.8" fill="#8FD8FF" fill-opacity="0.44"/><circle cx="44.0" cy="227.8" r="1.2" fill="#8FD8FF" fill-opacity="0.25"/><circle cx="113.0" cy="245.8" r="1.2" fill="#8FD8FF" fill-opacity="0.25"/><circle cx="1016.0" cy="504.0" r="2.2" fill="#8FD8FF" fill-opacity="0.55"/><circle cx="63.7" cy="587.0" r="1.2" fill="#8FD8FF" fill-opacity="0.25"/><circle cx="948.4" cy="470.1" r="2.2" fill="#8FD8FF" fill-opacity="0.55"/><circle cx="213.6" cy="578.6" r="1.2" fill="#8FD8FF" fill-opacity="0.25"/><circle cx="1084.0" cy="572.0" r="2.2" fill="#8FD8FF" fill-opacity="0.55"/><circle cx="13.7" cy="626.0" r="1.2" fill="#8FD8FF" fill-opacity="0.25"/><circle cx="413.6" cy="391.4" r="1.3" fill="#8FD8FF" fill-opacity="0.28"/><circle cx="914.2" cy="469.2" r="2.2" fill="#8FD8FF" fill-opacity="0.54"/><circle cx="323.5" cy="177.8" r="1.3" fill="#8FD8FF" fill-opacity="0.28"/><circle cx="1016.0" cy="606.0" r="2.2" fill="#8FD8FF" fill-opacity="0.55"/><circle cx="1118.0" cy="572.0" r="2.2" fill="#8FD8FF" fill-opacity="0.55"/><circle cx="622.5" cy="283.5" r="1.8" fill="#8FD8FF" fill-opacity="0.42"/><circle cx="263.7" cy="565.9" r="1.2" fill="#8FD8FF" fill-opacity="0.25"/><circle cx="605.5" cy="426.2" r="1.7" fill="#8FD8FF" fill-opacity="0.40"/><circle cx="299.8" cy="423.5" r="1.3" fill="#8FD8FF" fill-opacity="0.27"/><circle cx="1084.0" cy="368.0" r="2.2" fill="#8FD8FF" fill-opacity="0.55"/><circle cx="598.3" cy="135.2" r="1.7" fill="#8FD8FF" fill-opacity="0.40"/><circle cx="228.0" cy="670.4" r="1.2" fill="#8FD8FF" fill-opacity="0.25"/><circle cx="604.6" cy="209.6" r="1.7" fill="#8FD8FF" fill-opacity="0.40"/><circle cx="141.1" cy="690.1" r="1.2" fill="#8FD8FF" fill-opacity="0.25"/><circle cx="982.0" cy="334.0" r="2.2" fill="#8FD8FF" fill-opacity="0.55"/><circle cx="844.1" cy="535.6" r="2.1" fill="#8FD8FF" fill-opacity="0.52"/><circle cx="78.1" cy="458.3" r="1.2" fill="#8FD8FF" fill-opacity="0.25"/><circle cx="625.1" cy="152.5" r="1.8" fill="#8FD8FF" fill-opacity="0.42"/><circle cx="170.6" cy="607.4" r="1.2" fill="#8FD8FF" fill-opacity="0.25"/><circle cx="226.4" cy="268.8" r="1.2" fill="#8FD8FF" fill-opacity="0.25"/><circle cx="81.6" cy="456.9" r="1.2" fill="#8FD8FF" fill-opacity="0.25"/><circle cx="948.6" cy="402.0" r="2.2" fill="#8FD8FF" fill-opacity="0.55"/><circle cx="627.1" cy="163.4" r="1.8" fill="#8FD8FF" fill-opacity="0.42"/><circle cx="336.3" cy="285.8" r="1.3" fill="#8FD8FF" fill-opacity="0.28"/><circle cx="1016.0" cy="538.0" r="2.2" fill="#8FD8FF" fill-opacity="0.55"/><circle cx="160.2" cy="264.8" r="1.2" fill="#8FD8FF" fill-opacity="0.25"/><circle cx="470.1" cy="227.3" r="1.4" fill="#8FD8FF" fill-opacity="0.31"/><circle cx="324.2" cy="294.5" r="1.3" fill="#8FD8FF" fill-opacity="0.27"/><circle cx="851.1" cy="297.7" r="2.1" fill="#8FD8FF" fill-opacity="0.52"/><circle cx="265.1" cy="193.2" r="1.2" fill="#8FD8FF" fill-opacity="0.26"/><circle cx="786.9" cy="187.9" r="2.0" fill="#8FD8FF" fill-opacity="0.49"/><circle cx="819.3" cy="262.2" r="2.1" fill="#8FD8FF" fill-opacity="0.51"/><circle cx="769.9" cy="647.1" r="2.0" fill="#8FD8FF" fill-opacity="0.49"/><circle cx="1050.0" cy="130.0" r="2.2" fill="#8FD8FF" fill-opacity="0.55"/><circle cx="982.0" cy="572.0" r="2.2" fill="#8FD8FF" fill-opacity="0.55"/><circle cx="982.0" cy="266.0" r="2.2" fill="#8FD8FF" fill-opacity="0.55"/><circle cx="475.1" cy="465.9" r="1.4" fill="#8FD8FF" fill-opacity="0.31"/><circle cx="446.3" cy="467.0" r="1.4" fill="#8FD8FF" fill-opacity="0.30"/><circle cx="347.5" cy="441.4" r="1.3" fill="#8FD8FF" fill-opacity="0.28"/><circle cx="122.1" cy="204.5" r="1.2" fill="#8FD8FF" fill-opacity="0.25"/><text x="48" y="66" font-family="Poppins, Montserrat, 'Segoe UI', Arial, sans-serif" font-size="30.0" font-weight="800" fill="#FFFFFF" text-anchor="start" letter-spacing="0" opacity="1">Ihre KI-Journey</text><text x="48" y="96" font-family="Poppins, Montserrat, 'Segoe UI', Arial, sans-serif" font-size="16.0" font-weight="400" fill="#A9B8CC" text-anchor="start" letter-spacing="0" opacity="1">Vom Status quo zur erfolgreichen Umsetzung – mit der KI-Wertarchitektur</text><text x="48" y="664" font-family="Poppins, Montserrat, 'Segoe UI', Arial, sans-serif" font-size="12.0" font-weight="500" fill="#6F829E" text-anchor="start" letter-spacing="1" opacity="1">Einzelne Experimente</text><text x="1152" y="664" font-family="Poppins, Montserrat, 'Segoe UI', Arial, sans-serif" font-size="12.0" font-weight="500" fill="#6F829E" text-anchor="end" letter-spacing="1" opacity="1">Strukturiertes KI-Betriebsmodell</text><path d="M150 660H900" stroke="#6F829E" stroke-opacity=".5" stroke-dasharray="2 6"/><path d="M894 655l6 5-6 5" fill="none" stroke="#6F829E" stroke-opacity=".7"/><path d="M110 480C190 484 230 458 320 448" fill="none" stroke="#8A9BB3" stroke-width="3" stroke-dasharray="1 8" stroke-linecap="round"/><path d="M320 448 C355.0 440.7 460.0 421.0 530 404 C600.0 387.0 670.0 366.7 740 346 C810.0 325.3 890.0 299.0 950 280 C1010.0 261.0 1075.0 240.0 1100 232" fill="none" stroke="url(#road)" stroke-width="14" stroke-linecap="round" opacity=".45" filter="url(#glow)"/><path d="M320 448 C355.0 440.7 460.0 421.0 530 404 C600.0 387.0 670.0 366.7 740 346 C810.0 325.3 890.0 299.0 950 280 C1010.0 261.0 1075.0 240.0 1100 232" fill="none" stroke="url(#road)" stroke-width="4.5" stroke-linecap="round"/><path class="flow" d="M320 448 C355.0 440.7 460.0 421.0 530 404 C600.0 387.0 670.0 366.7 740 346 C810.0 325.3 890.0 299.0 950 280 C1010.0 261.0 1075.0 240.0 1100 232" fill="none" stroke="#FFFFFF" stroke-width="3" stroke-linecap="round" opacity=".9"/><path d="M110 494V524" stroke="#8A9BB3" stroke-opacity=".6" stroke-dasharray="2 4"/><path d="M320 434V402" stroke="#38C6D9" stroke-opacity=".6" stroke-dasharray="2 4"/><path d="M530 418V456" stroke="#22D3A6" stroke-opacity=".6" stroke-dasharray="2 4"/><path d="M740 332V298" stroke="#4C8DFF" stroke-opacity=".6" stroke-dasharray="2 4"/><path d="M950 294V334" stroke="#FF9A3C" stroke-opacity=".6" stroke-dasharray="2 4"/><path d="M1100 200V178" stroke="#FFC94D" stroke-opacity=".6" stroke-dasharray="2 4"/><g filter="url(#drop)"><rect x="24" y="524" width="196" height="118" rx="14" fill="#0C1D3A" fill-opacity="0.86" stroke="#FFFFFF" stroke-opacity="0.1"/></g><path d="M38 524.8H206" stroke="#8A9BB3" stroke-width="2.4" stroke-linecap="round"/><rect x="42" y="540.0" width="30" height="20" rx="10" fill="#8A9BB3" fill-opacity=".16"/><text x="57.0" y="554.5" font-family="Poppins, Montserrat, 'Segoe UI', Arial, sans-serif" font-size="11.0" font-weight="700" fill="#8A9BB3" text-anchor="middle" letter-spacing="0" opacity="1">00</text><text x="82.0" y="554.5" font-family="Poppins, Montserrat, 'Segoe UI', Arial, sans-serif" font-size="11.0" font-weight="600" fill="#8A9BB3" text-anchor="start" letter-spacing="1.3" opacity="1">AUSGANGSLAGE</text><text x="42" y="584.0" font-family="Poppins, Montserrat, 'Segoe UI', Arial, sans-serif" font-size="16.5" font-weight="700" fill="#FFFFFF" text-anchor="start" letter-spacing="0" opacity="1">Heute</text><text x="42" y="606.0" font-family="Poppins, Montserrat, 'Segoe UI', Arial, sans-serif" font-size="13.6" font-weight="400" fill="#B4C3D8" text-anchor="start" letter-spacing="0" opacity="1">Einzeltools, offene</text><text x="42" y="625.0" font-family="Poppins, Montserrat, 'Segoe UI', Arial, sans-serif" font-size="13.6" font-weight="400" fill="#B4C3D8" text-anchor="start" letter-spacing="0" opacity="1">Fragen, kein Plan</text><g filter="url(#drop)"><rect x="222" y="284" width="196" height="118" rx="14" fill="#0C1D3A" fill-opacity="0.86" stroke="#FFFFFF" stroke-opacity="0.1"/></g><path d="M236 284.8H404" stroke="#38C6D9" stroke-width="2.4" stroke-linecap="round"/><rect x="240" y="300.0" width="30" height="20" rx="10" fill="#38C6D9" fill-opacity=".16"/><text x="255.0" y="314.5" font-family="Poppins, Montserrat, 'Segoe UI', Arial, sans-serif" font-size="11.0" font-weight="700" fill="#38C6D9" text-anchor="middle" letter-spacing="0" opacity="1">01</text><text x="280.0" y="314.5" font-family="Poppins, Montserrat, 'Segoe UI', Arial, sans-serif" font-size="11.0" font-weight="600" fill="#38C6D9" text-anchor="start" letter-spacing="1.3" opacity="1">ORIENTIERUNG</text><text x="240" y="344.0" font-family="Poppins, Montserrat, 'Segoe UI', Arial, sans-serif" font-size="16.5" font-weight="700" fill="#FFFFFF" text-anchor="start" letter-spacing="0" opacity="1">KI-Quick-Check</text><text x="240" y="366.0" font-family="Poppins, Montserrat, 'Segoe UI', Arial, sans-serif" font-size="13.6" font-weight="400" fill="#B4C3D8" text-anchor="start" letter-spacing="0" opacity="1">Standort in wenigen</text><text x="240" y="385.0" font-family="Poppins, Montserrat, 'Segoe UI', Arial, sans-serif" font-size="13.6" font-weight="400" fill="#B4C3D8" text-anchor="start" letter-spacing="0" opacity="1">Minuten bestimmen</text><g filter="url(#drop)"><rect x="432" y="456" width="196" height="118" rx="14" fill="#0C1D3A" fill-opacity="0.86" stroke="#FFFFFF" stroke-opacity="0.1"/></g><path d="M446 456.8H614" stroke="#22D3A6" stroke-width="2.4" stroke-linecap="round"/><rect x="450" y="472.0" width="30" height="20" rx="10" fill="#22D3A6" fill-opacity=".16"/><text x="465.0" y="486.5" font-family="Poppins, Montserrat, 'Segoe UI', Arial, sans-serif" font-size="11.0" font-weight="700" fill="#22D3A6" text-anchor="middle" letter-spacing="0" opacity="1">02</text><text x="490.0" y="486.5" font-family="Poppins, Montserrat, 'Segoe UI', Arial, sans-serif" font-size="11.0" font-weight="600" fill="#22D3A6" text-anchor="start" letter-spacing="1.3" opacity="1">WERT ERKENNEN</text><text x="450" y="516.0" font-family="Poppins, Montserrat, 'Segoe UI', Arial, sans-serif" font-size="16.5" font-weight="700" fill="#FFFFFF" text-anchor="start" letter-spacing="0" opacity="1">KI-Wertanalyse</text><text x="450" y="538.0" font-family="Poppins, Montserrat, 'Segoe UI', Arial, sans-serif" font-size="13.6" font-weight="400" fill="#B4C3D8" text-anchor="start" letter-spacing="0" opacity="1">Potenziale entlang der</text><text x="450" y="557.0" font-family="Poppins, Montserrat, 'Segoe UI', Arial, sans-serif" font-size="13.6" font-weight="400" fill="#B4C3D8" text-anchor="start" letter-spacing="0" opacity="1">KI-Wertarchitektur</text><g filter="url(#drop)"><rect x="642" y="180" width="196" height="118" rx="14" fill="#0C1D3A" fill-opacity="0.86" stroke="#FFFFFF" stroke-opacity="0.1"/></g><path d="M656 180.8H824" stroke="#4C8DFF" stroke-width="2.4" stroke-linecap="round"/><rect x="660" y="196.0" width="30" height="20" rx="10" fill="#4C8DFF" fill-opacity=".16"/><text x="675.0" y="210.5" font-family="Poppins, Montserrat, 'Segoe UI', Arial, sans-serif" font-size="11.0" font-weight="700" fill="#4C8DFF" text-anchor="middle" letter-spacing="0" opacity="1">03</text><text x="700.0" y="210.5" font-family="Poppins, Montserrat, 'Segoe UI', Arial, sans-serif" font-size="11.0" font-weight="600" fill="#4C8DFF" text-anchor="start" letter-spacing="1.3" opacity="1">WERT PLANEN</text><text x="660" y="240.0" font-family="Poppins, Montserrat, 'Segoe UI', Arial, sans-serif" font-size="16.5" font-weight="700" fill="#FFFFFF" text-anchor="start" letter-spacing="0" opacity="1">Roadmap</text><text x="660" y="262.0" font-family="Poppins, Montserrat, 'Segoe UI', Arial, sans-serif" font-size="13.6" font-weight="400" fill="#B4C3D8" text-anchor="start" letter-spacing="0" opacity="1">Use Cases priorisieren,</text><text x="660" y="281.0" font-family="Poppins, Montserrat, 'Segoe UI', Arial, sans-serif" font-size="13.6" font-weight="400" fill="#B4C3D8" text-anchor="start" letter-spacing="0" opacity="1">Regeln klären</text><g filter="url(#drop)"><rect x="852" y="334" width="196" height="118" rx="14" fill="#0C1D3A" fill-opacity="0.86" stroke="#FFFFFF" stroke-opacity="0.1"/></g><path d="M866 334.8H1034" stroke="#FF9A3C" stroke-width="2.4" stroke-linecap="round"/><rect x="870" y="350.0" width="30" height="20" rx="10" fill="#FF9A3C" fill-opacity=".16"/><text x="885.0" y="364.5" font-family="Poppins, Montserrat, 'Segoe UI', Arial, sans-serif" font-size="11.0" font-weight="700" fill="#FF9A3C" text-anchor="middle" letter-spacing="0" opacity="1">04</text><text x="910.0" y="364.5" font-family="Poppins, Montserrat, 'Segoe UI', Arial, sans-serif" font-size="11.0" font-weight="600" fill="#FF9A3C" text-anchor="start" letter-spacing="1.3" opacity="1">WERT HEBEN</text><text x="870" y="394.0" font-family="Poppins, Montserrat, 'Segoe UI', Arial, sans-serif" font-size="16.5" font-weight="700" fill="#FFFFFF" text-anchor="start" letter-spacing="0" opacity="1">Pilot &amp; Befähigung</text><text x="870" y="416.0" font-family="Poppins, Montserrat, 'Segoe UI', Arial, sans-serif" font-size="13.6" font-weight="400" fill="#B4C3D8" text-anchor="start" letter-spacing="0" opacity="1">Erster Use Case live,</text><text x="870" y="435.0" font-family="Poppins, Montserrat, 'Segoe UI', Arial, sans-serif" font-size="13.6" font-weight="400" fill="#B4C3D8" text-anchor="start" letter-spacing="0" opacity="1">Team geschult</text><g filter="url(#drop)"><rect x="962" y="60" width="216" height="118" rx="14" fill="#0C1D3A" fill-opacity="0.86" stroke="#FFFFFF" stroke-opacity="0.1"/></g><path d="M976 60.8H1164" stroke="#FFC94D" stroke-width="2.4" stroke-linecap="round"/><rect x="980" y="76.0" width="30" height="20" rx="10" fill="#FFC94D" fill-opacity=".16"/><text x="995.0" y="90.5" font-family="Poppins, Montserrat, 'Segoe UI', Arial, sans-serif" font-size="11.0" font-weight="700" fill="#FFC94D" text-anchor="middle" letter-spacing="0" opacity="1">✓</text><text x="1020.0" y="90.5" font-family="Poppins, Montserrat, 'Segoe UI', Arial, sans-serif" font-size="11.0" font-weight="600" fill="#FFC94D" text-anchor="start" letter-spacing="1.3" opacity="1">ZIEL</text><text x="980" y="120.0" font-family="Poppins, Montserrat, 'Segoe UI', Arial, sans-serif" font-size="16.5" font-weight="700" fill="#FFFFFF" text-anchor="start" letter-spacing="0" opacity="1">Erfolgreiche Umsetzung</text><text x="980" y="142.0" font-family="Poppins, Montserrat, 'Segoe UI', Arial, sans-serif" font-size="13.6" font-weight="400" fill="#B4C3D8" text-anchor="start" letter-spacing="0" opacity="1">KI im Alltag, messbarer</text><text x="980" y="161.0" font-family="Poppins, Montserrat, 'Segoe UI', Arial, sans-serif" font-size="13.6" font-weight="400" fill="#B4C3D8" text-anchor="start" letter-spacing="0" opacity="1">Nutzen, skalierbar</text><circle cx="110" cy="480" r="9" fill="#081734" stroke="#8A9BB3" stroke-width="2.5" stroke-dasharray="3 3"/><circle cx="320" cy="448" r="20" fill="#38C6D9" fill-opacity=".14"/><circle cx="320" cy="448" r="10" fill="#081734" stroke="#38C6D9" stroke-width="3"/><circle cx="320" cy="448" r="3.5" fill="#38C6D9"/><circle cx="530" cy="404" r="20" fill="#22D3A6" fill-opacity=".14"/><circle cx="530" cy="404" r="10" fill="#081734" stroke="#22D3A6" stroke-width="3"/><circle cx="530" cy="404" r="3.5" fill="#22D3A6"/><circle cx="740" cy="346" r="20" fill="#4C8DFF" fill-opacity=".14"/><circle cx="740" cy="346" r="10" fill="#081734" stroke="#4C8DFF" stroke-width="3"/><circle cx="740" cy="346" r="3.5" fill="#4C8DFF"/><circle cx="950" cy="280" r="20" fill="#FF9A3C" fill-opacity=".14"/><circle cx="950" cy="280" r="10" fill="#081734" stroke="#FF9A3C" stroke-width="3"/><circle cx="950" cy="280" r="3.5" fill="#FF9A3C"/><circle cx="1100" cy="232" r="70" fill="url(#aura)"/><circle class="ring" cx="1100" cy="232" r="22" fill="none" stroke="#FFC94D" stroke-width="2"/><circle cx="1100" cy="232" r="30" fill="none" stroke="#FFC94D" stroke-opacity=".35" stroke-width="1"/><circle cx="1100" cy="232" r="18" fill="#FFC94D"/><path d="M1093 232L1098 237L1108 227" fill="none" stroke="#0E1F3D" stroke-width="3" stroke-linecap="round" stroke-linejoin="round"/></svg>